<svg width="512" height="512" viewBox="0 0 512 512" fill="none" xmlns="http://www.w3.org/2000/svg">
<rect width="512" height="512" rx="50" fill="#1D1D1D"/>
<mask id="path-2-outside-1_4075_4791" maskUnits="userSpaceOnUse" x="118" y="75" width="290" height="348" fill="black">
<rect fill="white" x="118" y="75" width="290" height="348"/>
<path d="M264.856 422H119.96V76.4H264.856C308.547 76.4 342.68 85.2747 367.256 103.024C391.832 120.773 404.12 144.496 404.12 174.192C404.12 192.965 399.512 208.837 390.296 221.808C381.08 234.779 368.621 244.677 352.92 251.504C337.219 257.989 319.299 261.232 299.16 261.232V243.312C318.275 243.312 336.024 245.531 352.408 249.968C368.792 254.405 381.933 262.597 391.832 274.544C401.731 286.149 406.68 302.704 406.68 324.208C406.68 340.251 403.267 354.416 396.44 366.704C389.613 378.992 379.885 389.232 367.256 397.424C354.968 405.616 340.12 411.76 322.712 415.856C305.304 419.952 286.019 422 264.856 422ZM214.68 289.904V345.2H269.976C276.803 345.2 282.776 344.688 287.896 343.664C293.016 342.64 297.283 341.104 300.696 339.056C304.451 336.667 307.181 333.765 308.888 330.352C310.936 326.939 311.96 322.672 311.96 317.552C311.96 306.629 308.205 299.291 300.696 295.536C293.528 291.781 283.288 289.904 269.976 289.904H214.68ZM214.68 153.2V213.104H269.976C283.288 213.104 293.187 210.373 299.672 204.912C306.157 199.451 309.4 191.771 309.4 181.872C309.4 172.997 306.157 166 299.672 160.88C293.528 155.76 283.629 153.2 269.976 153.2H214.68Z"/>
</mask>
<path d="M264.856 422H119.96V76.4H264.856C308.547 76.4 342.68 85.2747 367.256 103.024C391.832 120.773 404.12 144.496 404.12 174.192C404.12 192.965 399.512 208.837 390.296 221.808C381.08 234.779 368.621 244.677 352.92 251.504C337.219 257.989 319.299 261.232 299.16 261.232V243.312C318.275 243.312 336.024 245.531 352.408 249.968C368.792 254.405 381.933 262.597 391.832 274.544C401.731 286.149 406.68 302.704 406.68 324.208C406.68 340.251 403.267 354.416 396.44 366.704C389.613 378.992 379.885 389.232 367.256 397.424C354.968 405.616 340.12 411.76 322.712 415.856C305.304 419.952 286.019 422 264.856 422ZM214.68 289.904V345.2H269.976C276.803 345.2 282.776 344.688 287.896 343.664C293.016 342.64 297.283 341.104 300.696 339.056C304.451 336.667 307.181 333.765 308.888 330.352C310.936 326.939 311.96 322.672 311.96 317.552C311.96 306.629 308.205 299.291 300.696 295.536C293.528 291.781 283.288 289.904 269.976 289.904H214.68ZM214.68 153.2V213.104H269.976C283.288 213.104 293.187 210.373 299.672 204.912C306.157 199.451 309.4 191.771 309.4 181.872C309.4 172.997 306.157 166 299.672 160.88C293.528 155.76 283.629 153.2 269.976 153.2H214.68Z" fill="white"/>
<path d="M119.96 422H118.96V423H119.96V422ZM119.96 76.4V75.4H118.96V76.4H119.96ZM367.256 103.024L366.671 103.835L366.671 103.835L367.256 103.024ZM390.296 221.808L389.481 221.229L389.481 221.229L390.296 221.808ZM352.92 251.504L353.302 252.428L353.31 252.425L353.319 252.421L352.92 251.504ZM299.16 261.232H298.16V262.232H299.16V261.232ZM299.16 243.312V242.312H298.16V243.312H299.16ZM352.408 249.968L352.669 249.003L352.669 249.003L352.408 249.968ZM391.832 274.544L391.062 275.182L391.067 275.188L391.071 275.193L391.832 274.544ZM396.44 366.704L395.566 366.218L395.566 366.218L396.44 366.704ZM367.256 397.424L366.712 396.585L366.701 396.592L367.256 397.424ZM322.712 415.856L322.483 414.883L322.712 415.856ZM214.68 289.904V288.904H213.68V289.904H214.68ZM214.68 345.2H213.68V346.2H214.68V345.2ZM287.896 343.664L287.7 342.683L287.7 342.683L287.896 343.664ZM300.696 339.056L301.211 339.913L301.222 339.907L301.233 339.9L300.696 339.056ZM308.888 330.352L308.031 329.838L308.011 329.87L307.994 329.905L308.888 330.352ZM300.696 295.536L300.232 296.422L300.24 296.426L300.249 296.43L300.696 295.536ZM214.68 153.2V152.2H213.68V153.2H214.68ZM214.68 213.104H213.68V214.104H214.68V213.104ZM299.672 160.88L299.032 161.648L299.042 161.657L299.052 161.665L299.672 160.88ZM264.856 421H119.96V423H264.856V421ZM120.96 422V76.4H118.96V422H120.96ZM119.96 77.4H264.856V75.4H119.96V77.4ZM264.856 77.4C308.426 77.4 342.325 86.252 366.671 103.835L367.842 102.213C343.035 84.2974 308.668 75.4 264.856 75.4V77.4ZM366.671 103.835C390.993 121.401 403.12 144.825 403.12 174.192H405.12C405.12 144.167 392.671 120.146 367.842 102.213L366.671 103.835ZM403.12 174.192C403.12 192.796 398.556 208.456 389.481 221.229L391.111 222.387C400.468 209.219 405.12 193.135 405.12 174.192H403.12ZM389.481 221.229C380.378 234.04 368.069 243.827 352.521 250.587L353.319 252.421C369.174 245.528 381.782 235.518 391.111 222.387L389.481 221.229ZM352.538 250.58C336.978 257.007 319.192 260.232 299.16 260.232V262.232C319.406 262.232 337.459 258.972 353.302 252.428L352.538 250.58ZM300.16 261.232V243.312H298.16V261.232H300.16ZM299.16 244.312C318.197 244.312 335.858 246.522 352.147 250.933L352.669 249.003C336.19 244.54 318.352 242.312 299.16 242.312V244.312ZM352.147 250.933C368.351 255.322 381.307 263.409 391.062 275.182L392.602 273.906C382.559 261.785 369.233 253.489 352.669 249.003L352.147 250.933ZM391.071 275.193C400.763 286.555 405.68 302.845 405.68 324.208H407.68C407.68 302.563 402.699 285.743 392.593 273.895L391.071 275.193ZM405.68 324.208C405.68 340.105 402.299 354.099 395.566 366.218L397.314 367.19C404.234 354.733 407.68 340.396 407.68 324.208H405.68ZM395.566 366.218C388.824 378.353 379.214 388.476 366.712 396.585L367.8 398.263C380.557 389.988 390.402 379.631 397.314 367.19L395.566 366.218ZM366.701 396.592C354.531 404.705 339.799 410.808 322.483 414.883L322.941 416.829C340.441 412.712 355.405 406.527 367.811 398.256L366.701 396.592ZM322.483 414.883C305.162 418.958 285.955 421 264.856 421V423C286.082 423 305.446 420.946 322.941 416.829L322.483 414.883ZM213.68 289.904V345.2H215.68V289.904H213.68ZM214.68 346.2H269.976V344.2H214.68V346.2ZM269.976 346.2C276.85 346.2 282.891 345.685 288.092 344.645L287.7 342.683C282.661 343.691 276.756 344.2 269.976 344.2V346.2ZM288.092 344.645C293.291 343.605 297.674 342.036 301.211 339.913L300.182 338.199C296.892 340.172 292.741 341.675 287.7 342.683L288.092 344.645ZM301.233 339.9C305.115 337.429 307.982 334.4 309.782 330.799L307.994 329.905C306.381 333.131 303.787 335.904 300.159 338.212L301.233 339.9ZM309.746 330.866C311.91 327.259 312.96 322.802 312.96 317.552H310.96C310.96 322.542 309.962 326.618 308.031 329.838L309.746 330.866ZM312.96 317.552C312.96 306.385 309.097 298.618 301.143 294.642L300.249 296.43C307.314 299.963 310.96 306.874 310.96 317.552H312.96ZM301.16 294.65C293.785 290.787 283.357 288.904 269.976 288.904V290.904C283.219 290.904 293.271 292.776 300.232 296.422L301.16 294.65ZM269.976 288.904H214.68V290.904H269.976V288.904ZM213.68 153.2V213.104H215.68V153.2H213.68ZM214.68 214.104H269.976V212.104H214.68V214.104ZM269.976 214.104C283.397 214.104 293.573 211.356 300.316 205.677L299.028 204.147C292.801 209.391 283.18 212.104 269.976 212.104V214.104ZM300.316 205.677C307.066 199.993 310.4 192.011 310.4 181.872H308.4C308.4 191.531 305.249 198.908 299.028 204.147L300.316 205.677ZM310.4 181.872C310.4 172.717 307.037 165.42 300.292 160.095L299.052 161.665C305.278 166.58 308.4 173.277 308.4 181.872H310.4ZM300.312 160.112C293.899 154.768 283.712 152.2 269.976 152.2V154.2C283.546 154.2 293.157 156.752 299.032 161.648L300.312 160.112ZM269.976 152.2H214.68V154.2H269.976V152.2Z" fill="white" mask="url(#path-2-outside-1_4075_4791)"/>
</svg>
