<svg width="158" height="36" viewBox="0 0 158 36" fill="none" xmlns="http://www.w3.org/2000/svg">
<mask id="path-1-outside-1_143_1081" maskUnits="userSpaceOnUse" x="1" y="6" width="156" height="24" fill="black">
<rect fill="white" x="1" y="6" width="156" height="24"/>
<path d="M10.44 28H2.7V7.81H10.5C15.54 7.81 18.57 9.91 18.57 13.36C18.57 15.67 17.34 17.23 15.42 17.95C17.43 18.52 18.78 19.81 18.78 22.36C18.78 26.32 15.27 28 10.44 28ZM7.08 11.41V16.21H10.71C13.11 16.21 14.19 15.37 14.19 13.72C14.19 12.22 12.99 11.41 10.74 11.41H7.08ZM7.08 19.81V24.4H10.68C12.81 24.4 14.4 23.92 14.4 22.06C14.4 20.35 13.17 19.81 10.71 19.81H7.08ZM19.8527 28L25.1927 10.66C25.8827 8.47 27.6827 7.42 29.5727 7.42C31.4927 7.42 33.2927 8.47 33.9827 10.66L39.3227 28H34.8527L33.6827 23.86L25.4927 23.89L24.3227 28H19.8527ZM28.9427 11.95L26.6327 19.96H32.5427L30.2627 11.95C30.1427 11.53 29.9627 11.35 29.6027 11.35C29.2727 11.35 29.0627 11.53 28.9427 11.95ZM45.9593 7.81V23.95H55.3793V28H45.4493C42.6593 28 41.5793 26.56 41.5793 24.25V7.81H45.9593ZM61.5464 7.81V23.95H70.9664V28H61.0364C58.2464 28 57.1664 26.56 57.1664 24.25V7.81H61.5464ZM71.0086 28L76.3486 10.66C77.0386 8.47 78.8386 7.42 80.7286 7.42C82.6486 7.42 84.4486 8.47 85.1386 10.66L90.4786 28H86.0086L84.8386 23.86L76.6486 23.89L75.4786 28H71.0086ZM80.0986 11.95L77.7886 19.96H83.6986L81.4186 11.95C81.2986 11.53 81.1186 11.35 80.7586 11.35C80.4286 11.35 80.2186 11.53 80.0986 11.95ZM95.8852 28H91.4452L94.1752 10.63C94.5352 8.53 96.0052 7.42 98.0452 7.42C99.8452 7.42 101.375 8.2 101.855 10.15L105.245 22.75C105.245 22.84 105.275 22.84 105.275 22.84C105.305 22.84 105.335 22.84 105.335 22.75L108.665 10.24C109.175 8.29 110.735 7.42 112.565 7.42C114.575 7.42 116.015 8.56 116.315 10.72L118.805 28H114.365L112.415 12.16C112.415 12.01 112.385 11.92 112.265 11.92C112.175 11.92 112.115 11.98 112.085 12.1L108.335 25.48C107.915 27.01 106.715 27.76 105.275 27.76C103.895 27.76 102.605 27.04 102.245 25.57L98.4952 12.1C98.4652 11.95 98.4052 11.92 98.3452 11.92C98.2552 11.92 98.1652 11.98 98.1652 12.13L95.8852 28ZM119.761 28L125.101 10.66C125.791 8.47 127.591 7.42 129.481 7.42C131.401 7.42 133.201 8.47 133.891 10.66L139.231 28H134.761L133.591 23.86L125.401 23.89L124.231 28H119.761ZM128.851 11.95L126.541 19.96H132.451L130.171 11.95C130.051 11.53 129.871 11.35 129.511 11.35C129.181 11.35 128.971 11.53 128.851 11.95ZM147.968 28.39C144.338 28.39 141.428 26.86 140.138 23.98L143.798 22.15C144.458 23.62 145.868 24.37 147.968 24.37C149.858 24.37 151.298 23.59 151.298 22.15C151.298 20.47 149.708 20.2 147.608 19.84C144.578 19.33 140.468 18.25 140.468 13.69C140.468 10.15 143.648 7.45 147.818 7.45C151.148 7.45 154.028 8.98 155.318 11.86L151.658 13.69C150.998 12.4 149.678 11.5 147.638 11.5C145.988 11.5 144.848 12.28 144.848 13.51C144.848 15.13 146.528 15.55 148.718 15.94C151.718 16.45 155.678 17.53 155.678 22.12C155.678 25.75 152.258 28.39 147.968 28.39Z"/>
</mask>
<path d="M2.7 28H1.7V29H2.7V28ZM2.7 7.81V6.81H1.7V7.81H2.7ZM15.42 17.95L15.0689 17.0137L12.22 18.082L15.1472 18.9121L15.42 17.95ZM7.08 11.41V10.41H6.08V11.41H7.08ZM7.08 16.21H6.08V17.21H7.08V16.21ZM7.08 19.81V18.81H6.08V19.81H7.08ZM7.08 24.4H6.08V25.4H7.08V24.4ZM10.44 27H2.7V29H10.44V27ZM3.7 28V7.81H1.7V28H3.7ZM2.7 8.81H10.5V6.81H2.7V8.81ZM10.5 8.81C12.8997 8.81 14.6939 9.31266 15.8575 10.1146C16.9807 10.8887 17.57 11.9717 17.57 13.36H19.57C19.57 11.2983 18.6443 9.60627 16.9925 8.46786C15.3811 7.35734 13.1403 6.81 10.5 6.81V8.81ZM17.57 13.36C17.57 14.3312 17.314 15.0904 16.9005 15.6711C16.4848 16.2548 15.8705 16.713 15.0689 17.0137L15.7711 18.8863C16.8895 18.467 17.8502 17.7852 18.5295 16.8314C19.211 15.8746 19.57 14.6988 19.57 13.36H17.57ZM15.1472 18.9121C16.0236 19.1606 16.6613 19.5393 17.0829 20.0495C17.4955 20.5489 17.78 21.2694 17.78 22.36H19.78C19.78 20.9006 19.3895 19.7011 18.6246 18.7755C17.8687 17.8607 16.8264 17.3094 15.6928 16.9879L15.1472 18.9121ZM17.78 22.36C17.78 23.9834 17.0906 25.0761 15.8957 25.8142C14.6379 26.5912 12.7654 27 10.44 27V29C12.9446 29 15.2421 28.5688 16.9468 27.5158C18.7144 26.4239 19.78 24.6966 19.78 22.36H17.78ZM6.08 11.41V16.21H8.08V11.41H6.08ZM7.08 17.21H10.71V15.21H7.08V17.21ZM10.71 17.21C11.9936 17.21 13.1179 16.9915 13.9398 16.3913C14.8251 15.7448 15.19 14.7856 15.19 13.72H13.19C13.19 14.3044 13.0149 14.5902 12.7603 14.7762C12.4421 15.0085 11.8264 15.21 10.71 15.21V17.21ZM15.19 13.72C15.19 12.659 14.742 11.7599 13.8659 11.1721C13.0502 10.6248 11.9585 10.41 10.74 10.41V12.41C11.7715 12.41 12.4048 12.6002 12.7516 12.8329C13.038 13.0251 13.19 13.281 13.19 13.72H15.19ZM10.74 10.41H7.08V12.41H10.74V10.41ZM6.08 19.81V24.4H8.08V19.81H6.08ZM7.08 25.4H10.68V23.4H7.08V25.4ZM10.68 25.4C11.7802 25.4 12.9178 25.2833 13.8078 24.8107C14.2728 24.5637 14.6865 24.2112 14.9777 23.7215C15.2683 23.233 15.4 22.6703 15.4 22.06H13.4C13.4 22.3797 13.3329 22.5745 13.2588 22.6991C13.1854 22.8226 13.0685 22.9388 12.8697 23.0443C12.4322 23.2767 11.7098 23.4 10.68 23.4V25.4ZM15.4 22.06C15.4 21.5146 15.3019 20.9901 15.0536 20.52C14.8008 20.0413 14.4249 19.6814 13.9708 19.4239C13.1146 18.9383 11.9645 18.81 10.71 18.81V20.81C11.9155 20.81 12.6104 20.9517 12.9842 21.1636C13.1451 21.2549 13.2305 21.3506 13.2851 21.4541C13.3443 21.5662 13.4 21.7504 13.4 22.06H15.4ZM10.71 18.81H7.08V20.81H10.71V18.81ZM19.8527 28L18.897 27.7057L18.4984 29H19.8527V28ZM25.1927 10.66L24.2389 10.3595L24.237 10.3657L25.1927 10.66ZM33.9827 10.66L34.9385 10.3657L34.9365 10.3595L33.9827 10.66ZM39.3227 28V29H40.677L40.2784 27.7057L39.3227 28ZM34.8527 28L33.8904 28.272L34.0962 29H34.8527V28ZM33.6827 23.86L34.645 23.588L34.4385 22.8572L33.6791 22.86L33.6827 23.86ZM25.4927 23.89L25.4891 22.89L24.7369 22.8928L24.5309 23.6162L25.4927 23.89ZM24.3227 28V29H25.0778L25.2845 28.2738L24.3227 28ZM28.9427 11.95L29.9036 12.2271L29.9043 12.2247L28.9427 11.95ZM26.6327 19.96L25.6719 19.6829L25.3036 20.96H26.6327V19.96ZM32.5427 19.96V20.96H33.8671L33.5045 19.6862L32.5427 19.96ZM30.2627 11.95L31.2245 11.6762L31.2243 11.6753L30.2627 11.95ZM20.8084 28.2943L26.1484 10.9543L24.237 10.3657L18.897 27.7057L20.8084 28.2943ZM26.1465 10.9605C26.6927 9.22709 28.0755 8.42 29.5727 8.42V6.42C27.2899 6.42 25.0728 7.7129 24.239 10.3595L26.1465 10.9605ZM29.5727 8.42C31.1038 8.42 32.4839 9.23053 33.029 10.9605L34.9365 10.3595C34.1016 7.70946 31.8817 6.42 29.5727 6.42V8.42ZM33.027 10.9543L38.367 28.2943L40.2784 27.7057L34.9384 10.3657L33.027 10.9543ZM39.3227 27H34.8527V29H39.3227V27ZM35.815 27.728L34.645 23.588L32.7204 24.132L33.8904 28.272L35.815 27.728ZM33.6791 22.86L25.4891 22.89L25.4964 24.89L33.6864 24.86L33.6791 22.86ZM24.5309 23.6162L23.3609 27.7262L25.2845 28.2738L26.4545 24.1638L24.5309 23.6162ZM24.3227 27H19.8527V29H24.3227V27ZM27.9819 11.6729L25.6719 19.6829L27.5936 20.2371L29.9036 12.2271L27.9819 11.6729ZM26.6327 20.96H32.5427V18.96H26.6327V20.96ZM33.5045 19.6862L31.2245 11.6762L29.3009 12.2238L31.5809 20.2338L33.5045 19.6862ZM31.2243 11.6753C31.145 11.3979 31.0055 11.0404 30.7032 10.7597C30.3656 10.4462 29.9616 10.35 29.6027 10.35V12.35C29.6109 12.35 29.5774 12.3512 29.5208 12.3321C29.4586 12.3111 29.3952 12.2744 29.3423 12.2253C29.2932 12.1797 29.2733 12.1422 29.2719 12.1394C29.2715 12.1387 29.2832 12.1618 29.3012 12.2247L31.2243 11.6753ZM29.6027 10.35C29.2411 10.35 28.8526 10.4555 28.5264 10.7479C28.2246 11.0186 28.0692 11.3672 27.9812 11.6753L29.9043 12.2247C29.9362 12.1128 29.9459 12.1614 29.8615 12.2371C29.8161 12.2778 29.7608 12.3102 29.7033 12.3301C29.6488 12.3488 29.611 12.35 29.6027 12.35V10.35ZM45.9593 7.81H46.9593V6.81H45.9593V7.81ZM45.9593 23.95H44.9593V24.95H45.9593V23.95ZM55.3793 23.95H56.3793V22.95H55.3793V23.95ZM55.3793 28V29H56.3793V28H55.3793ZM41.5793 7.81V6.81H40.5793V7.81H41.5793ZM44.9593 7.81V23.95H46.9593V7.81H44.9593ZM45.9593 24.95H55.3793V22.95H45.9593V24.95ZM54.3793 23.95V28H56.3793V23.95H54.3793ZM55.3793 27H45.4493V29H55.3793V27ZM45.4493 27C44.2165 27 43.5567 26.6838 43.1917 26.3011C42.8182 25.9095 42.5793 25.2669 42.5793 24.25H40.5793C40.5793 25.5431 40.8804 26.7755 41.7444 27.6814C42.6169 28.5962 43.8921 29 45.4493 29V27ZM42.5793 24.25V7.81H40.5793V24.25H42.5793ZM41.5793 8.81H45.9593V6.81H41.5793V8.81ZM61.5464 7.81H62.5464V6.81H61.5464V7.81ZM61.5464 23.95H60.5464V24.95H61.5464V23.95ZM70.9664 23.95H71.9664V22.95H70.9664V23.95ZM70.9664 28V29H71.9664V28H70.9664ZM57.1664 7.81V6.81H56.1664V7.81H57.1664ZM60.5464 7.81V23.95H62.5464V7.81H60.5464ZM61.5464 24.95H70.9664V22.95H61.5464V24.95ZM69.9664 23.95V28H71.9664V23.95H69.9664ZM70.9664 27H61.0364V29H70.9664V27ZM61.0364 27C59.8036 27 59.1438 26.6838 58.7788 26.3011C58.4053 25.9095 58.1664 25.2669 58.1664 24.25H56.1664C56.1664 25.5431 56.4675 26.7755 57.3315 27.6814C58.204 28.5962 59.4792 29 61.0364 29V27ZM58.1664 24.25V7.81H56.1664V24.25H58.1664ZM57.1664 8.81H61.5464V6.81H57.1664V8.81ZM71.0086 28L70.0529 27.7057L69.6543 29H71.0086V28ZM76.3486 10.66L75.3948 10.3595L75.3929 10.3657L76.3486 10.66ZM85.1386 10.66L86.0943 10.3657L86.0924 10.3595L85.1386 10.66ZM90.4786 28V29H91.8329L91.4343 27.7057L90.4786 28ZM86.0086 28L85.0463 28.272L85.252 29H86.0086V28ZM84.8386 23.86L85.8009 23.588L85.5944 22.8572L84.8349 22.86L84.8386 23.86ZM76.6486 23.89L76.6449 22.89L75.8927 22.8928L75.6868 23.6162L76.6486 23.89ZM75.4786 28V29H76.2337L76.4404 28.2738L75.4786 28ZM80.0986 11.95L81.0594 12.2271L81.0601 12.2247L80.0986 11.95ZM77.7886 19.96L76.8278 19.6829L76.4594 20.96H77.7886V19.96ZM83.6986 19.96V20.96H85.023L84.6604 19.6862L83.6986 19.96ZM81.4186 11.95L82.3804 11.6762L82.3801 11.6753L81.4186 11.95ZM71.9643 28.2943L77.3043 10.9543L75.3929 10.3657L70.0529 27.7057L71.9643 28.2943ZM77.3024 10.9605C77.8485 9.22709 79.2314 8.42 80.7286 8.42V6.42C78.4458 6.42 76.2287 7.7129 75.3948 10.3595L77.3024 10.9605ZM80.7286 8.42C82.2597 8.42 83.6398 9.23053 84.1848 10.9605L86.0924 10.3595C85.2574 7.70946 83.0375 6.42 80.7286 6.42V8.42ZM84.1829 10.9543L89.5229 28.2943L91.4343 27.7057L86.0943 10.3657L84.1829 10.9543ZM90.4786 27H86.0086V29H90.4786V27ZM86.9709 27.728L85.8009 23.588L83.8763 24.132L85.0463 28.272L86.9709 27.728ZM84.8349 22.86L76.6449 22.89L76.6523 24.89L84.8423 24.86L84.8349 22.86ZM75.6868 23.6162L74.5168 27.7262L76.4404 28.2738L77.6104 24.1638L75.6868 23.6162ZM75.4786 27H71.0086V29H75.4786V27ZM79.1377 11.6729L76.8278 19.6829L78.7494 20.2371L81.0594 12.2271L79.1377 11.6729ZM77.7886 20.96H83.6986V18.96H77.7886V20.96ZM84.6604 19.6862L82.3804 11.6762L80.4568 12.2238L82.7368 20.2338L84.6604 19.6862ZM82.3801 11.6753C82.3009 11.3979 82.1613 11.0404 81.859 10.7597C81.5214 10.4462 81.1174 10.35 80.7586 10.35V12.35C80.7668 12.35 80.7332 12.3512 80.6767 12.3321C80.6144 12.3111 80.5511 12.2744 80.4981 12.2253C80.4491 12.1797 80.4292 12.1422 80.4277 12.1394C80.4274 12.1387 80.4391 12.1618 80.4571 12.2247L82.3801 11.6753ZM80.7586 10.35C80.3969 10.35 80.0084 10.4555 79.6823 10.7479C79.3804 11.0186 79.2251 11.3672 79.1371 11.6753L81.0601 12.2247C81.0921 12.1128 81.1018 12.1614 81.0174 12.2371C80.972 12.2778 80.9167 12.3102 80.8591 12.3301C80.8047 12.3488 80.7668 12.35 80.7586 12.35V10.35ZM95.8852 28V29H96.7518L96.875 28.1422L95.8852 28ZM91.4452 28L90.4573 27.8447L90.2757 29H91.4452V28ZM94.1752 10.63L93.1894 10.461L93.1873 10.4747L94.1752 10.63ZM101.855 10.15L100.884 10.389L100.887 10.3994L100.889 10.4098L101.855 10.15ZM105.245 22.75H106.245V22.6178L106.211 22.4902L105.245 22.75ZM105.335 22.75L104.369 22.4928L104.335 22.6192V22.75H105.335ZM108.665 10.24L109.632 10.4972L109.633 10.493L108.665 10.24ZM116.315 10.72L115.325 10.8576L115.325 10.8626L116.315 10.72ZM118.805 28V29H119.96L119.795 27.8574L118.805 28ZM114.365 28L113.373 28.1222L113.481 29H114.365V28ZM112.415 12.16H111.415V12.2213L111.423 12.2822L112.415 12.16ZM112.085 12.1L113.048 12.3699L113.052 12.3563L113.055 12.3425L112.085 12.1ZM108.335 25.48L107.372 25.2101L107.371 25.2153L108.335 25.48ZM102.245 25.57L103.216 25.3321L103.213 25.3169L103.209 25.3018L102.245 25.57ZM98.4952 12.1L97.5146 12.2961L97.5219 12.3325L97.5318 12.3682L98.4952 12.1ZM98.1652 12.13L99.155 12.2722L99.1652 12.2015V12.13H98.1652ZM95.8852 27H91.4452V29H95.8852V27ZM92.433 28.1553L95.163 10.7853L93.1873 10.4747L90.4573 27.8447L92.433 28.1553ZM95.1608 10.799C95.3062 9.95048 95.6583 9.37961 96.1091 9.01495C96.5649 8.64622 97.2066 8.42 98.0452 8.42V6.42C96.8437 6.42 95.7304 6.74877 94.8512 7.46005C93.967 8.17539 93.4041 9.20951 93.1895 10.461L95.1608 10.799ZM98.0452 8.42C98.809 8.42 99.4347 8.58624 99.8959 8.88939C100.338 9.17988 100.7 9.64127 100.884 10.389L102.826 9.91098C102.53 8.70873 101.887 7.80511 100.994 7.2181C100.121 6.64376 99.0814 6.42 98.0452 6.42V8.42ZM100.889 10.4098L104.279 23.0098L106.211 22.4902L102.821 9.89019L100.889 10.4098ZM104.245 22.75C104.245 22.8745 104.26 23.1315 104.428 23.3834C104.521 23.5227 104.653 23.648 104.823 23.733C104.905 23.7739 104.987 23.801 105.064 23.8176C105.103 23.8259 105.14 23.8315 105.175 23.835C105.193 23.8368 105.21 23.838 105.227 23.8388C105.235 23.8392 105.243 23.8395 105.251 23.8397C105.255 23.8398 105.259 23.8399 105.263 23.8399C105.265 23.84 105.267 23.84 105.269 23.84C105.27 23.84 105.272 23.84 105.272 23.84C105.274 23.84 105.275 23.84 105.275 22.84C105.275 21.84 105.277 21.84 105.278 21.84C105.279 21.84 105.28 21.84 105.281 21.84C105.283 21.84 105.285 21.84 105.287 21.8401C105.291 21.8401 105.295 21.8402 105.299 21.8403C105.307 21.8405 105.315 21.8408 105.323 21.8412C105.34 21.842 105.357 21.8432 105.374 21.8449C105.409 21.8484 105.446 21.8539 105.483 21.862C105.559 21.8783 105.639 21.9047 105.718 21.9442C105.882 22.0264 106.007 22.1461 106.092 22.2741C106.245 22.5035 106.245 22.7155 106.245 22.75H104.245ZM105.275 23.84C105.276 23.84 105.284 23.84 105.293 23.8399C105.302 23.8398 105.316 23.8395 105.334 23.8387C105.368 23.8371 105.425 23.8329 105.493 23.8192C105.643 23.7892 105.846 23.7136 106.024 23.5359C106.34 23.2194 106.335 22.8266 106.335 22.75H104.335C104.335 22.725 104.336 22.6499 104.362 22.5511C104.389 22.4486 104.453 22.2783 104.609 22.1216C104.937 21.7942 105.371 21.84 105.275 21.84V23.84ZM106.302 23.0072L109.632 10.4972L107.699 9.98277L104.369 22.4928L106.302 23.0072ZM109.633 10.493C109.83 9.73884 110.211 9.24458 110.68 8.92728C111.163 8.60103 111.804 8.42 112.565 8.42V6.42C111.497 6.42 110.442 6.67397 109.56 7.27022C108.665 7.87542 108.01 8.79116 107.698 9.98697L109.633 10.493ZM112.565 8.42C113.38 8.42 113.997 8.64848 114.431 9.01988C114.863 9.38884 115.202 9.97476 115.325 10.8576L117.306 10.5824C117.128 9.30524 116.598 8.24116 115.731 7.50012C114.868 6.76152 113.76 6.42 112.565 6.42V8.42ZM115.325 10.8626L117.815 28.1426L119.795 27.8574L117.305 10.5774L115.325 10.8626ZM118.805 27H114.365V29H118.805V27ZM115.358 27.8778L113.408 12.0378L111.423 12.2822L113.373 28.1222L115.358 27.8778ZM113.415 12.16C113.415 12.0674 113.415 11.7842 113.263 11.5049C113.172 11.3389 113.028 11.1737 112.82 11.0593C112.618 10.949 112.419 10.92 112.265 10.92V12.92C112.171 12.92 112.021 12.9022 111.859 12.8135C111.689 12.7207 111.575 12.5874 111.507 12.4626C111.446 12.3499 111.427 12.2549 111.421 12.216C111.414 12.1746 111.415 12.1513 111.415 12.16H113.415ZM112.265 10.92C111.973 10.92 111.675 11.0281 111.446 11.2579C111.242 11.4618 111.155 11.6972 111.115 11.8575L113.055 12.3425C113.045 12.3828 113.004 12.5282 112.86 12.6721C112.69 12.8419 112.468 12.92 112.265 12.92V10.92ZM111.122 11.8301L107.372 25.2101L109.298 25.7499L113.048 12.3699L111.122 11.8301ZM107.371 25.2153C107.217 25.7764 106.938 26.1443 106.608 26.3789C106.271 26.6184 105.822 26.76 105.275 26.76V28.76C106.168 28.76 107.039 28.5266 107.767 28.0086C108.503 27.4857 109.034 26.7136 109.299 25.7447L107.371 25.2153ZM105.275 26.76C104.227 26.76 103.439 26.2409 103.216 25.3321L101.274 25.8079C101.771 27.8391 103.563 28.76 105.275 28.76V26.76ZM103.209 25.3018L99.4585 11.8318L97.5318 12.3682L101.282 25.8382L103.209 25.3018ZM99.4757 11.9039C99.4426 11.7381 99.3636 11.4717 99.1385 11.2466C98.8753 10.9834 98.5611 10.92 98.3452 10.92V12.92C98.1892 12.92 97.9351 12.8716 97.7243 12.6609C97.5517 12.4883 97.5177 12.3119 97.5146 12.2961L99.4757 11.9039ZM98.3452 10.92C98.0821 10.92 97.7665 11.0094 97.5143 11.2616C97.2544 11.5215 97.1652 11.8498 97.1652 12.13H99.1652C99.1652 12.2602 99.1209 12.4835 98.9285 12.6759C98.7438 12.8606 98.5182 12.92 98.3452 12.92V10.92ZM97.1753 11.9878L94.8953 27.8578L96.875 28.1422L99.155 12.2722L97.1753 11.9878ZM119.761 28L118.805 27.7057L118.407 29H119.761V28ZM125.101 10.66L124.147 10.3595L124.145 10.3657L125.101 10.66ZM133.891 10.66L134.847 10.3657L134.845 10.3595L133.891 10.66ZM139.231 28V29H140.585L140.187 27.7057L139.231 28ZM134.761 28L133.799 28.272L134.004 29H134.761V28ZM133.591 23.86L134.553 23.588L134.347 22.8572L133.587 22.86L133.591 23.86ZM125.401 23.89L125.397 22.89L124.645 22.8928L124.439 23.6162L125.401 23.89ZM124.231 28V29H124.986L125.193 28.2738L124.231 28ZM128.851 11.95L129.812 12.2271L129.812 12.2247L128.851 11.95ZM126.541 19.96L125.58 19.6829L125.212 20.96H126.541V19.96ZM132.451 19.96V20.96H133.775L133.413 19.6862L132.451 19.96ZM130.171 11.95L131.133 11.6762L131.132 11.6753L130.171 11.95ZM120.717 28.2943L126.057 10.9543L124.145 10.3657L118.805 27.7057L120.717 28.2943ZM126.055 10.9605C126.601 9.22709 127.984 8.42 129.481 8.42V6.42C127.198 6.42 124.981 7.7129 124.147 10.3595L126.055 10.9605ZM129.481 8.42C131.012 8.42 132.392 9.23053 132.937 10.9605L134.845 10.3595C134.01 7.70946 131.79 6.42 129.481 6.42V8.42ZM132.935 10.9543L138.275 28.2943L140.187 27.7057L134.847 10.3657L132.935 10.9543ZM139.231 27H134.761V29H139.231V27ZM135.723 27.728L134.553 23.588L132.629 24.132L133.799 28.272L135.723 27.728ZM133.587 22.86L125.397 22.89L125.405 24.89L133.595 24.86L133.587 22.86ZM124.439 23.6162L123.269 27.7262L125.193 28.2738L126.363 24.1638L124.439 23.6162ZM124.231 27H119.761V29H124.231V27ZM127.89 11.6729L125.58 19.6829L127.502 20.2371L129.812 12.2271L127.89 11.6729ZM126.541 20.96H132.451V18.96H126.541V20.96ZM133.413 19.6862L131.133 11.6762L129.209 12.2238L131.489 20.2338L133.413 19.6862ZM131.132 11.6753C131.053 11.3979 130.914 11.0404 130.611 10.7597C130.274 10.4462 129.87 10.35 129.511 10.35V12.35C129.519 12.35 129.486 12.3512 129.429 12.3321C129.367 12.3111 129.303 12.2744 129.25 12.2253C129.201 12.1797 129.182 12.1422 129.18 12.1394C129.18 12.1387 129.191 12.1618 129.209 12.2247L131.132 11.6753ZM129.511 10.35C129.149 10.35 128.761 10.4555 128.435 10.7479C128.133 11.0186 127.977 11.3672 127.889 11.6753L129.812 12.2247C129.844 12.1128 129.854 12.1614 129.77 12.2371C129.724 12.2778 129.669 12.3102 129.611 12.3301C129.557 12.3488 129.519 12.35 129.511 12.35V10.35ZM140.138 23.98L139.69 23.0856L138.833 23.5142L139.225 24.3888L140.138 23.98ZM143.798 22.15L144.71 21.7404L144.283 20.7893L143.35 21.2556L143.798 22.15ZM147.608 19.84L147.776 18.8544L147.773 18.8539L147.608 19.84ZM155.318 11.86L155.765 12.7544L156.622 12.3258L156.23 11.4512L155.318 11.86ZM151.658 13.69L150.767 14.1455L151.219 15.0275L152.105 14.5844L151.658 13.69ZM148.718 15.94L148.542 16.9245L148.55 16.9259L148.718 15.94ZM147.968 27.39C144.615 27.39 142.136 25.9961 141.05 23.5712L139.225 24.3888C140.719 27.7239 144.06 29.39 147.968 29.39V27.39ZM140.585 24.8744L144.245 23.0444L143.35 21.2556L139.69 23.0856L140.585 24.8744ZM142.885 22.5596C143.758 24.5041 145.618 25.37 147.968 25.37V23.37C146.117 23.37 145.157 22.7359 144.71 21.7404L142.885 22.5596ZM147.968 25.37C149.031 25.37 150.068 25.1534 150.874 24.6465C151.716 24.1164 152.298 23.2632 152.298 22.15H150.298C150.298 22.4768 150.159 22.7336 149.809 22.9535C149.422 23.1966 148.794 23.37 147.968 23.37V25.37ZM152.298 22.15C152.298 21.5644 152.156 21.0282 151.843 20.5682C151.535 20.1166 151.114 19.8141 150.679 19.6015C149.861 19.2017 148.772 19.025 147.776 18.8544L147.439 20.8256C148.543 21.015 149.299 21.1533 149.801 21.3985C150.026 21.5084 150.133 21.6109 150.19 21.6936C150.24 21.7681 150.298 21.8956 150.298 22.15H152.298ZM147.773 18.8539C146.27 18.6008 144.663 18.2273 143.442 17.4425C142.292 16.7033 141.467 15.5952 141.467 13.69H139.467C139.467 16.3448 140.698 18.0567 142.361 19.125C143.952 20.1477 145.915 20.5692 147.442 20.8261L147.773 18.8539ZM141.467 13.69C141.467 10.8495 144.04 8.45 147.818 8.45V6.45C143.255 6.45 139.467 9.45049 139.467 13.69H141.467ZM147.818 8.45C150.845 8.45 153.31 9.8249 154.405 12.2688L156.23 11.4512C154.745 8.1351 151.45 6.45 147.818 6.45V8.45ZM154.87 10.9656L151.21 12.7956L152.105 14.5844L155.765 12.7544L154.87 10.9656ZM152.548 13.2345C151.7 11.5771 150.014 10.5 147.638 10.5V12.5C149.341 12.5 150.295 13.2229 150.767 14.1455L152.548 13.2345ZM147.638 10.5C146.669 10.5 145.751 10.7273 145.045 11.2283C144.311 11.749 143.848 12.545 143.848 13.51H145.848C145.848 13.245 145.954 13.036 146.203 12.8592C146.479 12.6627 146.956 12.5 147.638 12.5V10.5ZM143.848 13.51C143.848 14.1001 144.005 14.6351 144.326 15.0926C144.638 15.5377 145.062 15.8488 145.504 16.0758C146.354 16.5119 147.471 16.7338 148.542 16.9245L148.893 14.9555C147.774 14.7562 146.956 14.5731 146.418 14.2967C146.166 14.1674 146.034 14.0454 145.963 13.944C145.9 13.8549 145.848 13.7299 145.848 13.51H143.848ZM148.55 16.9259C150.036 17.1786 151.593 17.5509 152.769 18.3328C153.873 19.0667 154.678 20.1806 154.678 22.12H156.678C156.678 19.4694 155.502 17.7483 153.876 16.6672C152.322 15.6341 150.399 15.2114 148.885 14.9541L148.55 16.9259ZM154.678 22.12C154.678 25.0016 151.924 27.39 147.968 27.39V29.39C152.591 29.39 156.678 26.4984 156.678 22.12H154.678Z" fill="white" mask="url(#path-1-outside-1_143_1081)"/>
</svg>
