<svg width="20" height="20" viewBox="0 0 20 20" fill="none" xmlns="http://www.w3.org/2000/svg">
<path d="M10 13.75V12.0833" stroke="#1D1D1D" stroke-width="1.5" stroke-linecap="round"/>
<path d="M3.55667 15.7039C3.74407 17.0958 4.89694 18.1862 6.29988 18.2507C7.48039 18.305 8.67958 18.3333 10.0002 18.3333C11.3207 18.3333 12.5199 18.305 13.7004 18.2507C15.1034 18.1862 16.2562 17.0958 16.4437 15.7039C16.566 14.7956 16.6668 13.8647 16.6668 12.9167C16.6668 11.9687 16.566 11.0378 16.4437 10.1294C16.2562 8.7375 15.1034 7.64707 13.7004 7.58257C12.5199 7.52831 11.3207 7.5 10.0002 7.5C8.67958 7.5 7.48039 7.52831 6.29988 7.58257C4.89694 7.64707 3.74407 8.7375 3.55667 10.1294C3.43436 11.0378 3.3335 11.9687 3.3335 12.9167C3.3335 13.8647 3.43436 14.7956 3.55667 15.7039Z" stroke="#1D1D1D" stroke-width="1.5"/>
<path d="M6.25 7.50002V5.41669C6.25 3.34562 7.92893 1.66669 10 1.66669C12.0711 1.66669 13.75 3.34562 13.75 5.41669V7.50002" stroke="#1D1D1D" stroke-width="1.5" stroke-linecap="round" stroke-linejoin="round"/>
</svg>
